<mxfile host="65bd71144e">
    <diagram id="R1vXmfaLzy9tMbiJj5DC" name="Page-1">
        <mxGraphModel dx="533" dy="352" grid="1" gridSize="10" guides="1" tooltips="1" connect="1" arrows="1" fold="1" page="1" pageScale="1" pageWidth="827" pageHeight="1169" math="0" shadow="0">
            <root>
                <mxCell id="0"/>
                <mxCell id="1" parent="0"/>
                <mxCell id="2" value="CLIENT&amp;nbsp;" style="whiteSpace=wrap;html=1;" parent="1" vertex="1">
                    <mxGeometry x="40" y="110" width="170" height="160" as="geometry"/>
                </mxCell>
                <mxCell id="3" value="Server" style="whiteSpace=wrap;html=1;" parent="1" vertex="1">
                    <mxGeometry x="290" y="110" width="190" height="150" as="geometry"/>
                </mxCell>
                <mxCell id="4" value="Databse" style="whiteSpace=wrap;html=1;" parent="1" vertex="1">
                    <mxGeometry x="530" y="110" width="200" height="150" as="geometry"/>
                </mxCell>
                <mxCell id="5" value="" style="shape=stencil(lVbLctswDPwaXXdAAHyd0/Q/MhOn9tS1M47Tx98XqsapQVuY9iZRCxJY7EKc5OFt+/S6mZjezqfj182P3fN5O8mniXl32G5Ou7M9TfI4ycPL8bT5cjq+H56X99enGTk/fTt+n3f4ucSVgqpzFNOvZaV3tP5n5fMSsN8drgI6qjh86eh5HS8o1eFzR6F1PEHZ4bWCJcKLz0cUKcALpDs8p0uGK/UKOXxKSAE+1bEAQU3reC7oHk+gFuRf0GjAR/lrAfn9MzTgP1vDPD5ZAUFCuY0JsaLrekBJY0ZSUYOUijHiNZrpotr7KWX05kXKKEEN2sHZBVQGRwGEXHxAQ45kR2i+6GY1BH0zWVIeT4gCkmVcxxpq4MwPHXyQJBcv3T8AyZecEzSYFNY1v780aMApg7yTLcNS1vF1JCgpJCJIkUcntEB2t6PLehi1WJB1wFOwvwrIjyLjPzJaggzONOsHCd0P4IBRYyj5FnA4vJqd4DVhnFLQg1aRh/HbQ990RvOkSg670G/mo0pYtP3v2OsuMzTyAd0o20ZaDZRqR9AwLdJlZa0IHbzcQ60aTeInnjGtwQn2eXBbl/C/PI8rL6Ze0SJ7yjjxroi7P+f/9y7yDwH28Pfq87Lb75eb0/X38apkS8s1Sx5/Aw==);lineShape=1;strokeColor=default;" parent="1" vertex="1">
                    <mxGeometry x="210.94187966639504" y="122.22384682430209" width="8.91251227595861" height="6.726327204912498" as="geometry"/>
                </mxCell>
                <mxCell id="6" value="" style="shape=stencil(lVfLbhsxDPyavRJ6izqn6X8EiFMbde3AcV9/XwoLbSwqGje39S7HFMkZklr8w9v+6XW3OPN2vZy/734fnq/7xX9ZnDuc9rvL4SpPi39c/MPL+bL7djn/PD2vv1+fqmV9+nH+Vf/hz4rz5EMFOfN3fSFvwvrm62p/PJxu7Jkia3vHc3srDnwPcJSBA5spZQ0wbg5wgYrrAYZsAYBCvnQAW6j4OcCHIWhDPs4BwbScbABLDgEiOT8AzBwQna6bxBCBh5ja5w2QKQMPybXPGyCSsQAgB7A9QKiU5oCciVUdHPTAEkN/JIZUKom4tzdkQMhFMtKXzZIFOS2sqRopovMI8VgHjGogAFbqtMQZiMdsETaEd2RBTkcXYaPWNAgVtKUA5Faz1DMvyps7ZUgdQLiI9Cl1VnVLARKpROKeqslSRpWWHqOCTi0NM4Bqe4EpIA9ee/Dc2DsFqLbHsHPLkaySG0N9CiD31ChNsLOsxj5mTwnLM/QhS1dF58ktg+/2AWWIdZ/3uF0Usv15rKgJ1axQdjqjCQOKmgv3ASqlBTNbmnCvHeFdQtphTaM6KZAHJtNnSbTDyENuDehWnZ8GgA1A5oLKkswiBwCZ9fTMBVIvm5b1TQoy4gEg+cacDYCb3gfz2eBpNa4A4gKNq3HJqAoEgh7XmAoAHsZFSWqJhsm4itXmD/rquOwJANF1XCelTSU0QoeFtTZ/EPSwEYt9AOQbNm6xR1RybafY7H2r48cB6GFYqQp4ZLXaOMLl1lDsEypqKuD8Ro+dbGHbHjYY0RLaYAb7uLHw/84TEjmggiFeGcwZ5l/l0+OFaqiXy1CVAx9EE2iMf/aGd99eHt6vky+H43G9jd5+19dPebVeXf3jPw==);lineShape=1;strokeColor=default;" parent="1" vertex="1">
                    <mxGeometry x="210.038066290566" y="118.40452360886911" width="82.35301635333887" height="7.832680470064967" as="geometry"/>
                </mxCell>
                <mxCell id="7" value="" style="shape=stencil(lVfZctswDPwav2JIghee0/Q/MhOn9jSNM47T4+8L1aVtQNJm8ibLC5FYLK4N373tHl63mxTeTsfD9+2v/eNpt+Evm5T2L7vtcX/Spw3fb/ju6XDcfjse3l8ez79fHybk9PTj8HP6wu+zXWpUwmSVwp/zm0gh/3vx9Yx/3r/c4LlSKwbfqMs6Phdq1X6fqfK6QSmUxBrIuOKiQWXq1oOUqQKDFojtCalTA1dq4n3mTBmQJIGivVIOJOAEEWK2BkKprRvEECjYI2oahy4fwVSsE7VSB0f0QpKsgVCvgKZC2Ya6pRGa1cg5g0opAm1EatZpDU0HBkp7srx2pQH4wGH8fTFolPu6QUrjAsNAgy+AVo1rtvhOglilYqOgWmng+2Vk1yV9rlJZdnl87uaACjhVmSXvQAUOBOrd4tsIygo+Wp1KgRFQ76zDk9JBRQozQiMkNFJx/OgNwfeZgsV3GTdc1ujIwgu+U0ZZ4+OleAb8dCrd45FAo7o3U3QADsc4+LhhtBZo0FwIeJSONYPqkqYQoxPCyKkb0f2X7UpWtllWFlQcZ0kgEF9HNb/BC2qbxDM8KnTJZ71g0cVZFWqjx60kjetPUqEmZt1JMiXAf/BNXxIxUgRFF99AFZVpKq4PCPz+Z/Gx+zGq6xwFCFVFFBuB1mAZ0sGrumaJ61zufgjR/p3AlYr4Sl0z7N8t+oZfw9DVctYE3/BLJUEGMlR2MWg4L7Ud28DpzICEN5FoMy1nOJ8qJ26k4AbnqNIH6xcDHuVsOXDifdBygzqgTjnBVmzVb0NDvKazLV+xjjOX1Rr8jK0VFuaDzKYKyqgeiS8Yyhpweco3y5EKCePZarvAHSH2mSygsuNMqIkENSgZW9N17fogAGJFhBeKaUoTh2fUP2bbAR4alQ7JHg/SbGqA3d8HJM1n19KP8fpw3YGf9s/P5xX69n+/M+ur877N938B);lineShape=1;strokeColor=default;" parent="1" vertex="1">
                    <mxGeometry x="262.3961899280737" y="102.50368636833207" width="47.65000626874038" height="47.9660063685313" as="geometry"/>
                </mxCell>
                <mxCell id="8" value="" style="shape=stencil(rVfLbhsxDPyavRKSKOpxTtP/CBCnNurageO2yd+X2422pmRPG6C3tcyRRuRwuDvx3cv24XkzBfdyPh2/bn7uHs/biT9NIewO281pd9anie8nvns6njZfTsfvh8fl9/PDHDk/fTv+mHd4XXCBcp5Bwb0tCzGRS79XPi/x+93hIt4HSs4AuFAAgMCUgwGESqncBrASqBYQSMJtQMxUogF4XeHbACkU7R18JA9OSJnYUtI0oEvnSJIMoFLxIL42wi0+U4i344sSsvszebB/TY1ui3fkHIjPFMVemDKKLySWf6IE+Nfa89cKMDpAE2R1qjd+X7muU7fecE2RHiHwiGxlFCMlDHjPeQMIU6owS97KKDkSVLbcenEFRIpAqFWoSA+oiFJsvbgCAnmQ18o9QFRbKEuBqqU09yvoHQV0vcMfBWj3MMrSQEkNg4FhjJcuVFH8kFUmh+o8lM01pfyjLhxllKFBeEoQFXlQtvcUEaGhd5SRgAxda08HTXt0gOiJUVIHjxE9AQye0cR0UAhyscElE1NEJww2nIT8/wTMg8Fmae5n0J55SOs8HdGoUunYea4GgLShw1M6mxQSoD4lkLo66DQEJ8TSy1Uv7UDheGW8Agqcn9ovwQJyJg9O8NwXrhTo3CocW4aLDrlOqX+tUr1XUGjf5sAaX6Dn+fbvGi/Q513/IlkdHNCuDeM1QUIReJhmw1qqKheZ/OAvOVCB8d7GpwTz44ZGcxRgfLH7S8QvMP3+6l6oa1bFX4xZAU7x0Rf/v8frw5+vjKfdfr98pFz+33+V6NLyRcP3vwA=);lineShape=1;strokeColor=default;" parent="1" vertex="1">
                    <mxGeometry x="472.7767575851078" y="129.2169050099625" width="71.6657324002628" height="8.242037501319222" as="geometry"/>
                </mxCell>
                <mxCell id="9" value="" style="shape=stencil(lVfLctswDPwaXTEkQRLgOU3/IzNxak9dO+O4r78vVJeuQVmbyU2WsCaAXTw48cPb9ul1M6Xwdj4dv25+7p7P24k/TSntDtvNaXe2p4kfJ354OZ42X07H74fny+/Xp9lyfvp2/DH/w68LTqnWGZTC78uLQDn+ffH5Yr7fHW7MU6SanX0lTuv2nCh6+xgphHVADhTFAzIpOKEkSsUBLIR/Pt4F1ELZh2wxZF4HCBN7AJuTbR2ggVrzgExR1wEt9hA7wNJQCgAoMXuAUAMxxBB62juiKCXAdEvUome6wSM0U/UniDFXYV4HIixxEWijhtElLSSA6twoe21YphHVXCgOgEYJ6Zsp8ghAWWKTf1wAUMW1kTgDIDElIR5OEFJ0Ql3EUKiBtKZCRT2ASZBLRlMYeSggS+ZS8QC9UrkWtPqSUyFBgEbiS05r1+8acRpGQARZMmmMarVeCdqGiU/zGAODGNg++16pCrXE2v/vyoOVFAraxsOC6YjqYdGYTEuM6kH6/LhRK6MYTEu+a1gzVMyDLkpUBDItnrib7rkmpmEq2hEFAWThk8I0zSNqiNrkioq6UPUF0TIVwNxc1APAJitI09w2vPpMTBG5dE+uCQyIufUNgEoNxfBRQOaxMYn1GRB0KRQ805LgCbWSepfsTQBdQMxjX3L1nW0jj0EXhjHYWJbF8oB4qELVtw3LG+pkpfXBf12AWh8Z93mo4xpqVRsAwBaq5nmYF1GkJRnlnRKMIQplLw17o6AbGw0+STHBTSCN0jP7CGizielTNG/SIICwmLlwIC72bqtN4P1inTQGQRkESsP22degNd99Lhm2U7uUeEEnvCGReClE2LfyuBOG3sfui3+cBXh2SHf1xhw488H72rvm9vD/aviy2+8vN8vb7+NV0l5drqH8+Ac=);lineShape=1;strokeColor=default;" parent="1" vertex="1">
                    <mxGeometry x="517.792244710691" y="116.92079914597468" width="43.6853595533618" height="41.34855888759913" as="geometry"/>
                </mxCell>
                <mxCell id="10" value="" style="shape=stencil(lVfLctswDPwaXTEg+D6n6X9kJk7tqWtnHKdt/j5QVSkmGG3smyxjRbx2AQ7+7mX78LwZhF/Op+PPzZ/d43k7+G+DyO6w3Zx2Z30a/P3g756Op82P0/H18Dj9fn4YLcenX8ff4xf+TriayMuIEn6b3nhPwf17830C7HeHC0DJFH0LCCRpHZAr+dQCMjwhC0nrUvCUASAlirkBRE+CAI4yN4CkQfM6IAYqoQEUJqnrgKBBuwZQhSo4IYT5ewsgUy7rAF+J27TWSgJO0LrWNgbHTAwQUqiIPaJEABAKpfNJ1gEuUmqbqRYKAaSJkrP2GQVNztusJtCsjor5vp4IImbKbdVKpQr6gsm1RSuBXEb23DZqzvOJK/aGzdnNdF2Jl1v/lUsM7JWabT6VSgX47229YqWIiEaOrb0D+Vfmtz2dGPqzcGqxDxSAfaFk7NV/wMpq65sj7LfOvggx+H7nTynzF66Lt3oo1l0+dT4UYN/VS/mI8tP1g9rLLf1WI1Sgrp+rg/rQ8aUkKKI9H+usqtfxPXuKIJ+dniStIOSvUWgdZKh/Oj1UvjDo/05vlY98iz5/Yd8PAAWgwdqPmFigooxDzLiUYUv7NC8bFyegManbSUgWkMHUC91c1f1CQJbiMiQuNiI0JtWB/1PrYklDWVIZdK1LggGZbQzuC4C6ZEbT/GJtz3QmhNnFz5U0Um3LhpebUdiisRek7EpEsz5RBDvmKITB+I/i/djeFmpSAERQezMKVInQpNG/23idn0v4OTW5EzuXofiO26FpomWfWgOElv06UNA41qSaoo0TEeijAsyA8suIWCuzmLYTSOabL1BXAPTh4772tNvvp+ve5f/2fqevpruhv38H);lineShape=1;strokeColor=default;" parent="1" vertex="1">
                    <mxGeometry x="484.0899041154096" y="225.88169479528244" width="69.1647006563685" height="16.08763712140065" as="geometry"/>
                </mxCell>
                <mxCell id="11" value="" style="shape=stencil(7VjLbhsxDPwaXwmJ1IM6p+l/BIjTGE3jwEn6+Ptya2hjcb3jFOilRW8bRyM+xBlS2sjV8/3N03bD4fnlsP+8/ba7fbnfyIcN8+7xfnvYvdjXRq43cnW3P2w/Hfavj7fHv59uppXT15f912mH70ecCkWdUBx+HH+JTFl+/fLxCHjYPZ4AaqZUBwAHKnEdUCplHgFKEQByIxkBkilWAIiUxhgSk5R1QEqUywgwm3kdIEohDYBcqAQAiMSjhZIotHUAJ6pj0DUQ6zogqo+hJmoIwFTHGKritHoDGigAA4lS9OsjOAXp8c3+NKpgfyYW7z8MmMTFW+H+VsZufSEG+bHomj8AxBzLXhjXMxW4f3D7hwv+pzyW3KX8hJHIxlSB63X0pxQK4Hx5sT5D3iefH6NMRv7M9T4DhBSw2HSnRW9BAClTIYk+5AhcMgfExdCIgYWlmlahBIRF04IFlQKoujaT9p00bko68kAbPLfW+jF1gNmsoDAM0MagG3f1WwWMpd0SpMLk0pilVrAF7R7PAO3ycR5gWjKWhtlMyKVCeSyNGGZFOI/IxNmbUJTX5BXDAAEoTLPm7yxUnCb2vdycbChN7Pug2WyoXJmSs2C6g/LK1JyFgAlhIjHWhlorBbJhaXXVpxVOPHbUrjMYQBCg+qAnC+jg1J+DxVAw5aT6LKHmP5WaIzVTAFk6qeYTkkZU321BoXIJEBbligTf0rQkBBpJzIHGHtAwR0tZAFC52pS0ACDBt3JNTsq0t4A/A9DFgG6UE1Abyr5p2RZI8G0wckpm1w5E6sJ+FrOmlYEwWaf2w5X2Vnx+FmgLgMUAADH3K8WJBRT0//H5nx+f3Q3v7xqfi5/aCp6pjABuWDCWwgBCJ9R8aVY4bptLdQw5C7Qg0vvwfI/PsCZS8C8FdrNH83mqXt/fbvbnWW8OjGJqRK3Agl0Z/FxoaQAx1NjHm1muuxyfX6/eowhfIkxGXDsI8DFlUubg1qOxVuOZ9WCEXHabAOO11iLZxYt0yG5U7oLEl25gZcy/QN7YenfbsU6C2nFeCEvfYHV/NwvC6dTW51Goo0kxckj8/BvjpRP4vTfFdwDs4+0J82738HB8AT39v3/ytJ+Oz6Vy/RM=);lineShape=1;strokeColor=default;" parent="1" vertex="1">
                    <mxGeometry x="456.0405773303862" y="221.6148529757919" width="60.53553275715376" height="36.866001893657085" as="geometry"/>
                </mxCell>
                <mxCell id="12" value="" style="shape=stencil(lVfLctswDPwaXTEEQRLkOU3/IzNxak9dO+O4bfL3heqRaxLVtr7JMpbEaxfQJA9v26fXzRTD2/l0/Lr5uXs+byf5NMW4O2w3p93ZniZ5nOTh5XjafDkdvx+eL79fn2bL+enb8cd8wvsF1yoFnVExfFzftPr7zecLYL873ACqUso9oFDL6wDN1EoPyJTADUVIYg9IlHgdkJlS6gFCJa0DUiDRERCAS7FRaj0gUlEACMQ8AgTcwHHx+AbA4AalmO7JKi9VXew5BAoBAWSos8IIAml/QW1UwflWgz4AtVYsyH5o1LlPQIKu0S32yVLWkD33/ggvRV+xT70/rFQE2Q80UGIQLlPuzRm2Q6TYRxtgsJFqT7FEJa6by9gLLKSgtvZvn8tYKAN3ZFGQqzvWrtCfwT5X4nv8UaEEauXirYUEKJBLp5ERccVVqzVScL5rBhPpek+vmZhUIIiul6upFeTiwJVSKUOuD1zMJneQWwPXpVAB+XFaMssdzI+OYkgM/HFaGKE7dnk/Lf6ltIM0Y3On/Iky4IqfLAp7x48uhdrgZ6PNCXC+H74Fct1P9wJ7068PGWqP309wPv0CZLsD2H/8hsUUwPlmn2VotgS4O+9rYz7RHDKpkWGyyEKfNUDpLzCPGKibAWrfERKhSzeryLUGCQr6XxDZ6gg46Z0qCvcHH7Zi4vjE2tQooFN95RpeaXxr2E6W8Q33bff/AbCHPx8TL7v9/vItcvv/+PFhry4fLvL4Cw==);lineShape=1;strokeColor=default;" parent="1" vertex="1">
                    <mxGeometry x="206.17949454579377" y="234.34414426115973" width="100.78223925744851" height="4.0061694854930465" as="geometry"/>
                </mxCell>
                <mxCell id="13" value="" style="shape=stencil(7VjJbtswEP0aXwdch5xzmv5HgDi1UTcOHKfL33dUgao4kp4RIKeiN1t6T7Mv5C7evR4eXva74F6vl/PX/Y/j4/Wwi592IRyfD/vL8aq/dvF+F++ezpf9l8v57flx/P/yMCCHX9/O34cv/Bx57MnHgRXcr/GJUKl/Hnwe8afj8wyfAwl3eF8plm1CihSlI4TSnqwSYqDqO0JkqkBCUAm9CSlRAgTP5GpPEErAaO+aTxohR2h0IRd6fKaSgc3kco8vJBGYTCks8MgAqs7iS0D4sPi+5228+qePQGaKCeFjtv6JHuG90T+Rh3hn8JpUwJ9u4X9PGeofDN7d0J97fTThAvS/0SdpkUE89yWTCjHIh2Djq3j0fVmx1wP/eLFdRQMWQALF2Pw3EaTl1Hofcu17jcDaJYAJ+jr0NVwSZeCjokb3KlXtlaCIa6VkCAy9JJFKb4N+gkEaSbV1Iw62RhHbiEQTGwVaKBsJgTKWUPv2rlYJsMG7RXFKpuSwiNITuAndNMJYXVsst/wqRoIGH2TfEAhnCRXkhhTKbAmCbFATkyUwksC2plXJCkpOppE0EXQooDjkNiRncQjIBiUYCQkuF0pg46UI54gsJrmmq0c2MLGJtM46RNDGaCTosEMq1TaZ5gQUh2r3nUElRBC7UQ1G43ow41/dmpANU27OAie4RMVkK9+qaRvp0pTcIngTuApXJH2dzWKrMpGXio3DrFVtMWz2CZxB7yeEVpEzvwpox7VQMlZH2JiKdsber1WakutzNLeKnAgBFvWwW/eNqeT2ZOsAYNo3V2iDX9jAqS1Q615qy86Ed1DA//X8X1/Pc9/uPn49N+v/x67nkdjgGY9+O5dTbvv6uv46to2DPD6S+9bWZmd41CSiutTcEmgbAiFWBcwyomcONDU1BYoZs21mreNrmxYNr4c4dCAReyBxbWJt4c1Wi4eNtihjsIMxY/Wo1ScD/yg+9/rgLUTxZkfASwgHe/6KcHlUfOrnjB7XkH+CTeoM1y7FmxMnwx6teNc30Qo3TfUP24s1NJPeexF3G68//t76PR1Pp/HScP7e3hLqo/GGMd7/Bg==);lineShape=1;strokeColor=default;" parent="1" vertex="1">
                    <mxGeometry x="169.3820824687765" y="218.46933088379456" width="91.0050262096729" height="44.619925395487826" as="geometry"/>
                </mxCell>
            </root>
        </mxGraphModel>
    </diagram>
</mxfile>